<svg xmlns="http://www.w3.org/2000/svg" xmlns:xlink="http://www.w3.org/1999/xlink" width="375" viewBox="0 0 375 375" height="375" version="1.0"><defs><clipPath id="a"><path d="M 31 44 L 367 44 L 367 331 L 31 331 Z M 31 44"/></clipPath><clipPath id="b"><path d="M 155.199219 315.820312 C 157.539062 314.066406 159.730469 312.3125 161.777344 310.414062 C 176.683594 296.675781 196.121094 288.78125 216.4375 289.660156 C 231.054688 290.242188 245.960938 286.152344 258.675781 276.796875 C 266.566406 271.097656 272.707031 263.9375 277.234375 256.042969 C 282.351562 247.128906 291.707031 241.429688 301.9375 241.136719 C 315.964844 240.550781 329.996094 235.582031 341.835938 225.9375 C 368.140625 204.160156 374.863281 164.554688 354.550781 137.078125 C 331.019531 105.070312 300.183594 106.386719 280.160156 112.085938 C 267.882812 115.59375 255.019531 109.894531 248.882812 98.785156 C 244.789062 91.1875 239.96875 83.148438 235.4375 77.59375 C 205.914062 41.496094 153.445312 33.75 114.570312 59.328125 C 80.957031 81.542969 67.070312 121.441406 76.132812 157.832031 C 79.203125 170.402344 74.234375 183.554688 63.710938 191.152344 C 63.710938 191.152344 63.566406 191.300781 63.566406 191.300781 C 29.074219 216.582031 21.621094 265.105469 47.050781 299.449219 C 72.042969 333.796875 121.148438 341.25 155.199219 315.820312 Z M 155.199219 315.820312"/></clipPath><linearGradient x1="1236.808" gradientTransform="rotate(143.728 1345.39 575.061) scale(1.4615)" xmlns:xlink="http://www.w3.org/1999/xlink" y1="1084.314" x2="1556.147" gradientUnits="userSpaceOnUse" y2="1084.314" xlink:type="simple" xlink:actuate="onLoad" id="c" xlink:show="other"><stop stop-color="#DC85FF" offset="0"/><stop stop-color="#DC85FF" offset=".125"/><stop stop-color="#DC85FF" offset=".156"/><stop stop-color="#DC85FF" offset=".164"/><stop stop-color="#DC85FE" offset=".168"/><stop stop-color="#DC86FD" offset=".172"/><stop stop-color="#DD86FC" offset=".176"/><stop stop-color="#DD87FB" offset=".18"/><stop stop-color="#DD87FA" offset=".184"/><stop stop-color="#DD87F9" offset=".188"/><stop stop-color="#DD88F8" offset=".191"/><stop stop-color="#DD88F7" offset=".195"/><stop stop-color="#DE89F5" offset=".199"/><stop stop-color="#DE89F4" offset=".203"/><stop stop-color="#DE89F3" offset=".207"/><stop stop-color="#DE8AF2" offset=".211"/><stop stop-color="#DE8AF1" offset=".215"/><stop stop-color="#DF8BF0" offset=".219"/><stop stop-color="#DF8BEF" offset=".223"/><stop stop-color="#DF8BEE" offset=".227"/><stop stop-color="#DF8CED" offset=".23"/><stop stop-color="#DF8CEC" offset=".234"/><stop stop-color="#DF8DEA" offset=".238"/><stop stop-color="#E08DE9" offset=".242"/><stop stop-color="#E08DE8" offset=".246"/><stop stop-color="#E08EE7" offset=".25"/><stop stop-color="#E08EE6" offset=".254"/><stop stop-color="#E08FE5" offset=".258"/><stop stop-color="#E18FE4" offset=".262"/><stop stop-color="#E190E3" offset=".266"/><stop stop-color="#E190E2" offset=".27"/><stop stop-color="#E190E0" offset=".273"/><stop stop-color="#E191DF" offset=".277"/><stop stop-color="#E291DE" offset=".281"/><stop stop-color="#E292DD" offset=".285"/><stop stop-color="#E292DC" offset=".289"/><stop stop-color="#E292DB" offset=".293"/><stop stop-color="#E293DA" offset=".297"/><stop stop-color="#E293D9" offset=".301"/><stop stop-color="#E394D8" offset=".305"/><stop stop-color="#E394D6" offset=".309"/><stop stop-color="#E394D5" offset=".313"/><stop stop-color="#E395D4" offset=".316"/><stop stop-color="#E395D3" offset=".32"/><stop stop-color="#E496D2" offset=".324"/><stop stop-color="#E496D1" offset=".328"/><stop stop-color="#E496D0" offset=".332"/><stop stop-color="#E497CF" offset=".336"/><stop stop-color="#E497CE" offset=".34"/><stop stop-color="#E498CD" offset=".344"/><stop stop-color="#E598CB" offset=".348"/><stop stop-color="#E599CA" offset=".352"/><stop stop-color="#E599C9" offset=".355"/><stop stop-color="#E599C8" offset=".359"/><stop stop-color="#E59AC7" offset=".363"/><stop stop-color="#E69AC6" offset=".367"/><stop stop-color="#E69BC5" offset=".371"/><stop stop-color="#E69BC4" offset=".375"/><stop stop-color="#E69BC3" offset=".379"/><stop stop-color="#E69CC1" offset=".383"/><stop stop-color="#E79CC0" offset=".387"/><stop stop-color="#E79DBF" offset=".391"/><stop stop-color="#E79DBE" offset=".395"/><stop stop-color="#E79DBD" offset=".398"/><stop stop-color="#E79EBC" offset=".402"/><stop stop-color="#E79EBB" offset=".406"/><stop stop-color="#E89FBA" offset=".41"/><stop stop-color="#E89FB9" offset=".414"/><stop stop-color="#E89FB7" offset=".418"/><stop stop-color="#E8A0B6" offset=".422"/><stop stop-color="#E8A0B5" offset=".426"/><stop stop-color="#E9A1B4" offset=".43"/><stop stop-color="#E9A1B3" offset=".434"/><stop stop-color="#E9A1B2" offset=".438"/><stop stop-color="#E9A2B1" offset=".441"/><stop stop-color="#E9A2B0" offset=".445"/><stop stop-color="#E9A3AF" offset=".449"/><stop stop-color="#EAA3AE" offset=".453"/><stop stop-color="#EAA4AC" offset=".457"/><stop stop-color="#EAA4AB" offset=".461"/><stop stop-color="#EAA4AA" offset=".465"/><stop stop-color="#EAA5A9" offset=".469"/><stop stop-color="#EBA5A8" offset=".473"/><stop stop-color="#EBA6A7" offset=".477"/><stop stop-color="#EBA6A6" offset=".48"/><stop stop-color="#EBA6A5" offset=".484"/><stop stop-color="#EBA7A4" offset=".488"/><stop stop-color="#ECA7A2" offset=".492"/><stop stop-color="#ECA8A1" offset=".496"/><stop stop-color="#ECA8A0" offset=".5"/><stop stop-color="#ECA89F" offset=".504"/><stop stop-color="#ECA99E" offset=".508"/><stop stop-color="#ECA99D" offset=".512"/><stop stop-color="#EDAA9C" offset=".516"/><stop stop-color="#EDAA9B" offset=".52"/><stop stop-color="#EDAA9A" offset=".523"/><stop stop-color="#EDAB98" offset=".527"/><stop stop-color="#EDAB97" offset=".531"/><stop stop-color="#EEAC96" offset=".535"/><stop stop-color="#EEAC95" offset=".539"/><stop stop-color="#EEAC94" offset=".543"/><stop stop-color="#EEAD93" offset=".547"/><stop stop-color="#EEAD92" offset=".551"/><stop stop-color="#EEAE91" offset=".555"/><stop stop-color="#EFAE90" offset=".559"/><stop stop-color="#EFAF8F" offset=".563"/><stop stop-color="#EFAF8D" offset=".566"/><stop stop-color="#EFAF8C" offset=".57"/><stop stop-color="#EFB08B" offset=".574"/><stop stop-color="#F0B08A" offset=".578"/><stop stop-color="#F0B189" offset=".582"/><stop stop-color="#F0B188" offset=".586"/><stop stop-color="#F0B187" offset=".59"/><stop stop-color="#F0B286" offset=".594"/><stop stop-color="#F1B285" offset=".598"/><stop stop-color="#F1B383" offset=".602"/><stop stop-color="#F1B382" offset=".605"/><stop stop-color="#F1B381" offset=".609"/><stop stop-color="#F1B480" offset=".613"/><stop stop-color="#F1B47F" offset=".617"/><stop stop-color="#F2B57E" offset=".621"/><stop stop-color="#F2B57D" offset=".625"/><stop stop-color="#F2B57C" offset=".629"/><stop stop-color="#F2B67B" offset=".633"/><stop stop-color="#F2B679" offset=".637"/><stop stop-color="#F3B778" offset=".641"/><stop stop-color="#F3B777" offset=".645"/><stop stop-color="#F3B876" offset=".648"/><stop stop-color="#F3B875" offset=".652"/><stop stop-color="#F3B874" offset=".656"/><stop stop-color="#F3B973" offset=".66"/><stop stop-color="#F4B972" offset=".664"/><stop stop-color="#F4BA71" offset=".668"/><stop stop-color="#F4BA70" offset=".672"/><stop stop-color="#F4BA6E" offset=".676"/><stop stop-color="#F4BB6D" offset=".68"/><stop stop-color="#F5BB6C" offset=".684"/><stop stop-color="#F5BC6B" offset=".688"/><stop stop-color="#F5BC6A" offset=".691"/><stop stop-color="#F5BC69" offset=".695"/><stop stop-color="#F5BD68" offset=".699"/><stop stop-color="#F6BD67" offset=".703"/><stop stop-color="#F6BE66" offset=".707"/><stop stop-color="#F6BE64" offset=".711"/><stop stop-color="#F6BE63" offset=".715"/><stop stop-color="#F6BF62" offset=".719"/><stop stop-color="#F6BF61" offset=".723"/><stop stop-color="#F7C060" offset=".727"/><stop stop-color="#F7C05F" offset=".73"/><stop stop-color="#F7C05E" offset=".734"/><stop stop-color="#F7C15D" offset=".738"/><stop stop-color="#F7C15C" offset=".742"/><stop stop-color="#F8C25A" offset=".746"/><stop stop-color="#F8C259" offset=".75"/><stop stop-color="#F8C358" offset=".754"/><stop stop-color="#F8C357" offset=".758"/><stop stop-color="#F8C356" offset=".762"/><stop stop-color="#F8C455" offset=".766"/><stop stop-color="#F9C454" offset=".77"/><stop stop-color="#F9C553" offset=".773"/><stop stop-color="#F9C552" offset=".777"/><stop stop-color="#F9C551" offset=".781"/><stop stop-color="#F9C64F" offset=".785"/><stop stop-color="#FAC64E" offset=".789"/><stop stop-color="#FAC74D" offset=".793"/><stop stop-color="#FAC74C" offset=".797"/><stop stop-color="#FAC74B" offset=".801"/><stop stop-color="#FAC84A" offset=".805"/><stop stop-color="#FBC849" offset=".809"/><stop stop-color="#FBC948" offset=".813"/><stop stop-color="#FBC947" offset=".816"/><stop stop-color="#FBC945" offset=".82"/><stop stop-color="#FBCA44" offset=".824"/><stop stop-color="#FBCA43" offset=".828"/><stop stop-color="#FCCB42" offset=".832"/><stop stop-color="#FCCB41" offset=".836"/><stop stop-color="#FCCB40" offset=".84"/><stop stop-color="#FCCC3F" offset=".844"/><stop stop-color="#FCCC3E" offset=".848"/><stop stop-color="#FDCD3D" offset=".852"/><stop stop-color="#FDCD3B" offset=".855"/><stop stop-color="#FDCE3A" offset=".859"/><stop stop-color="#FDCE39" offset=".863"/><stop stop-color="#FDCE38" offset=".867"/><stop stop-color="#FDCF37" offset=".871"/><stop stop-color="#FECF36" offset=".875"/><stop stop-color="#FED035" offset=".879"/><stop stop-color="#FED034" offset=".883"/><stop stop-color="#FED033" offset=".887"/><stop stop-color="#FED132" offset=".891"/><stop stop-color="#FFD130" offset=".895"/><stop stop-color="#FFD22F" offset=".898"/><stop stop-color="#FFD22F" offset=".902"/><stop stop-color="#FFD22E" offset=".906"/><stop stop-color="#FFD22E" offset=".938"/><stop stop-color="#FFD22E" offset="1"/></linearGradient></defs><g clip-path="url(#a)"><g clip-path="url(#b)"><path fill="url(#c)" d="M 521.535156 233.621094 L 251.222656 -134.738281 L -125.050781 141.378906 L 145.261719 509.738281 Z M 521.535156 233.621094"/></g></g><path fill="#FFF" d="M 234.707031 300.328125 C 212.054688 300.328125 190.863281 289.804688 177.125 271.242188 C 168.792969 259.84375 153.445312 256.335938 140.878906 262.914062 C 127.285156 269.929688 112.523438 273.582031 97.03125 273.582031 C 70.578125 273.582031 46.027344 263.058594 27.757812 243.914062 C 9.488281 224.769531 0.136719 199.628906 1.449219 173.175781 C 3.789062 124.65625 43.6875 84.757812 92.210938 82.417969 C 112.085938 81.394531 131.378906 86.511719 148.039062 97.03125 C 159.878906 104.488281 175.078125 102.734375 184.285156 92.648438 C 195.246094 80.664062 210.738281 74.085938 227.105469 74.816406 C 256.042969 75.988281 278.988281 99.664062 279.28125 128.601562 C 279.429688 135.03125 278.40625 141.316406 276.214844 147.308594 C 272.558594 157.539062 275.480469 169.230469 283.519531 176.683594 C 301.496094 193.636719 309.535156 218.484375 304.710938 243.183594 C 299.890625 268.46875 274.460938 293.898438 249.175781 298.867188 C 244.5 299.890625 239.53125 300.328125 234.707031 300.328125 Z M 154.179688 258.238281 C 163.386719 258.238281 172.445312 262.476562 178.292969 270.367188 C 194.660156 292.4375 221.699219 302.8125 249.027344 297.40625 C 273.730469 292.4375 298.574219 267.445312 303.398438 242.746094 C 308.074219 218.628906 300.328125 194.222656 282.644531 177.707031 C 274.167969 169.667969 271.097656 157.539062 274.898438 146.722656 C 276.945312 140.878906 277.96875 134.738281 277.820312 128.601562 C 277.382812 100.394531 255.167969 77.449219 226.960938 76.28125 C 211.175781 75.550781 195.976562 81.980469 185.308594 93.671875 C 175.660156 104.195312 159.730469 106.242188 147.164062 98.347656 C 130.792969 87.972656 111.792969 83.003906 92.210938 83.878906 C 44.417969 86.070312 5.105469 125.386719 2.914062 173.324219 C 1.742188 199.339844 10.949219 224.183594 28.78125 242.890625 C 46.757812 261.746094 71.019531 272.121094 97.03125 272.121094 C 112.234375 272.121094 126.847656 268.613281 140.292969 261.597656 C 144.679688 259.40625 149.5 258.238281 154.179688 258.238281 Z M 154.179688 258.238281"/><path fill="#FFF" d="M 167.769531 313.628906 L 155.347656 313.628906 L 155.347656 301.203125 C 155.347656 300.328125 154.617188 299.597656 153.738281 299.597656 C 152.863281 299.597656 152.132812 300.328125 152.132812 301.203125 L 152.132812 313.628906 L 139.707031 313.628906 C 138.832031 313.628906 138.101562 314.359375 138.101562 315.234375 C 138.101562 316.113281 138.832031 316.84375 139.707031 316.84375 L 152.132812 316.84375 L 152.132812 329.265625 C 152.132812 330.144531 152.863281 330.875 153.738281 330.875 C 154.617188 330.875 155.347656 330.144531 155.347656 329.265625 L 155.347656 316.84375 L 167.769531 316.84375 C 168.648438 316.84375 169.378906 316.113281 169.378906 315.234375 C 169.378906 314.359375 168.648438 313.628906 167.769531 313.628906 Z M 167.769531 313.628906"/><path fill="#FFF" d="M 88.554688 125.386719 L 76.132812 125.386719 L 76.132812 112.964844 C 76.132812 112.085938 75.402344 111.355469 74.527344 111.355469 C 73.648438 111.355469 72.917969 112.085938 72.917969 112.964844 L 72.917969 125.386719 L 60.496094 125.386719 C 59.617188 125.386719 58.886719 126.117188 58.886719 126.992188 C 58.886719 127.871094 59.617188 128.601562 60.496094 128.601562 L 72.917969 128.601562 L 72.917969 141.023438 C 72.917969 141.902344 73.648438 142.632812 74.527344 142.632812 C 75.402344 142.632812 76.132812 141.902344 76.132812 141.023438 L 76.132812 128.601562 L 88.554688 128.601562 C 89.433594 128.601562 90.164062 127.871094 90.164062 126.992188 C 90.164062 126.117188 89.433594 125.386719 88.554688 125.386719 Z M 88.554688 125.386719"/><path fill="#FFF" d="M 314.941406 84.316406 L 306.613281 84.316406 L 306.613281 75.988281 C 306.613281 75.402344 306.175781 74.964844 305.589844 74.964844 C 305.003906 74.964844 304.566406 75.402344 304.566406 75.988281 L 304.566406 84.316406 L 296.234375 84.316406 C 295.652344 84.316406 295.210938 84.757812 295.210938 85.339844 C 295.210938 85.925781 295.652344 86.363281 296.234375 86.363281 L 304.566406 86.363281 L 304.566406 94.695312 C 304.566406 95.277344 305.003906 95.71875 305.589844 95.71875 C 306.175781 95.71875 306.613281 95.277344 306.613281 94.695312 L 306.613281 86.363281 L 314.941406 86.363281 C 315.527344 86.363281 315.964844 85.925781 315.964844 85.339844 C 316.113281 84.902344 315.527344 84.316406 314.941406 84.316406 Z M 314.941406 84.316406"/></svg>